<?xml version="1.0" encoding="utf-8"?>
<!-- Generator: Adobe Illustrator 22.1.0, SVG Export Plug-In . SVG Version: 6.00 Build 0)  -->
<svg version="1.1" id="Layer_2" xmlns="http://www.w3.org/2000/svg" xmlns:xlink="http://www.w3.org/1999/xlink" x="0px" y="0px"
	 viewBox="0 0 500 500" style="enable-background:new 0 0 500 500;" xml:space="preserve">
<style type="text/css">
	.st0{fill:none;stroke:#000000;stroke-width:12;stroke-linecap:round;stroke-miterlimit:10;}
	.st1{fill:none;stroke:#000000;stroke-width:12;stroke-miterlimit:10;}
</style>
<g>
	<line x1="316.4" y1="257" x2="224.9" y2="257"/>
	<line class="st0" x1="316.4" y1="257" x2="224.9" y2="257"/>
</g>
<g>
	<line x1="162" y1="302.9" x2="253.5" y2="302.9"/>
	<line class="st0" x1="162" y1="302.9" x2="253.5" y2="302.9"/>
</g>
<g>
	<line x1="316.4" y1="343" x2="224.9" y2="343"/>
	<line class="st0" x1="316.4" y1="343" x2="224.9" y2="343"/>
</g>
<g>
	<line x1="349.3" y1="216.8" x2="216.5" y2="123.8"/>
	<line class="st0" x1="349.3" y1="216.8" x2="216.5" y2="123.8"/>
</g>
<g>
	<line x1="128.6" y1="216.8" x2="261.4" y2="123.8"/>
	<line class="st0" x1="128.6" y1="216.8" x2="261.4" y2="123.8"/>
</g>
<g>
	<line x1="128.6" y1="216.8" x2="349.3" y2="216.8"/>
	<line class="st0" x1="128.6" y1="216.8" x2="349.3" y2="216.8"/>
</g>
<circle class="st1" cx="316.4" cy="234.5" r="17.7"/>
<circle class="st1" cx="316.4" cy="279.9" r="17.7"/>
<circle class="st1" cx="316.4" cy="325.3" r="17.7"/>
<circle class="st1" cx="162" cy="234.5" r="17.7"/>
<circle class="st1" cx="162" cy="279.9" r="17.7"/>
<circle class="st1" cx="162" cy="325.3" r="17.7"/>
</svg>
